<?xml version="1.0" encoding="UTF-8" standalone="no"?>
<!DOCTYPE svg PUBLIC "-//W3C//DTD SVG 1.1//EN"
 "http://www.w3.org/Graphics/SVG/1.1/DTD/svg11.dtd">
<!-- Generated by graphviz version 2.30.1 (20150306.0020)
 -->
<!-- Title: G Pages: 1 -->
<svg width="422pt" height="578pt"
 viewBox="0.00 0.00 422.00 578.00" xmlns="http://www.w3.org/2000/svg" xmlns:xlink="http://www.w3.org/1999/xlink">
<g id="graph0" class="graph" transform="scale(1 1) rotate(0) translate(4 574)">
<title>G</title>
<polygon fill="white" stroke="white" points="-4,5 -4,-574 419,-574 419,5 -4,5"/>
<g id="clust1" class="cluster"><title>cluster_Global</title>
<path fill="none" stroke="gray" d="M20,-44C20,-44 394,-44 394,-44 400,-44 406,-50 406,-56 406,-56 406,-550 406,-550 406,-556 400,-562 394,-562 394,-562 20,-562 20,-562 14,-562 8,-556 8,-550 8,-550 8,-56 8,-56 8,-50 14,-44 20,-44"/>
<text text-anchor="middle" x="207" y="-549.2" font-family="Times,serif" font-size="11.00" fill="gray">Global</text>
</g>
<g id="clust2" class="cluster"><title>cluster_\ActionController</title>
<path fill="none" stroke="gray" d="M28,-52C28,-52 386,-52 386,-52 392,-52 398,-58 398,-64 398,-64 398,-522 398,-522 398,-528 392,-534 386,-534 386,-534 28,-534 28,-534 22,-534 16,-528 16,-522 16,-522 16,-64 16,-64 16,-58 22,-52 28,-52"/>
<text text-anchor="middle" x="207" y="-521.2" font-family="Times,serif" font-size="11.00" fill="gray">ActionController</text>
</g>
<g id="clust3" class="cluster"><title>cluster_\ActionController\Controller</title>
<path fill="none" stroke="gray" d="M36,-434C36,-434 355,-434 355,-434 361,-434 367,-440 367,-446 367,-446 367,-494 367,-494 367,-500 361,-506 355,-506 355,-506 36,-506 36,-506 30,-506 24,-500 24,-494 24,-494 24,-446 24,-446 24,-440 30,-434 36,-434"/>
<text text-anchor="middle" x="195.5" y="-493.2" font-family="Times,serif" font-size="11.00" fill="gray">Controller</text>
</g>
<g id="clust4" class="cluster"><title>cluster_\ActionController\Exception</title>
<path fill="none" stroke="gray" d="M254,-354C254,-354 378,-354 378,-354 384,-354 390,-360 390,-366 390,-366 390,-414 390,-414 390,-420 384,-426 378,-426 378,-426 254,-426 254,-426 248,-426 242,-420 242,-414 242,-414 242,-366 242,-366 242,-360 248,-354 254,-354"/>
<text text-anchor="middle" x="316" y="-413.2" font-family="Times,serif" font-size="11.00" fill="gray">Exception</text>
</g>
<g id="clust5" class="cluster"><title>cluster_\ActionController\Response</title>
<path fill="none" stroke="gray" d="M291,-274C291,-274 341,-274 341,-274 347,-274 353,-280 353,-286 353,-286 353,-334 353,-334 353,-340 347,-346 341,-346 341,-346 291,-346 291,-346 285,-346 279,-340 279,-334 279,-334 279,-286 279,-286 279,-280 285,-274 291,-274"/>
<text text-anchor="middle" x="316" y="-333.2" font-family="Times,serif" font-size="11.00" fill="gray">Response</text>
</g>
<g id="clust6" class="cluster"><title>cluster_\ActionController\Registry</title>
<path fill="none" stroke="gray" d="M284,-194C284,-194 348,-194 348,-194 354,-194 360,-200 360,-206 360,-206 360,-254 360,-254 360,-260 354,-266 348,-266 348,-266 284,-266 284,-266 278,-266 272,-260 272,-254 272,-254 272,-206 272,-206 272,-200 278,-194 284,-194"/>
<text text-anchor="middle" x="316" y="-253.2" font-family="Times,serif" font-size="11.00" fill="gray">Registry</text>
</g>
<g id="clust7" class="cluster"><title>cluster_\ActionController\Filter</title>
<path fill="none" stroke="gray" d="M77,-60C77,-60 364,-60 364,-60 370,-60 376,-66 376,-72 376,-72 376,-174 376,-174 376,-180 370,-186 364,-186 364,-186 77,-186 77,-186 71,-186 65,-180 65,-174 65,-174 65,-72 65,-72 65,-66 71,-60 77,-60"/>
<text text-anchor="middle" x="220.5" y="-173.2" font-family="Times,serif" font-size="11.00" fill="gray">Filter</text>
</g>
<!-- \\ActionController\\Controller\\Base -->
<g id="node1" class="node"><title>\\ActionController\\Controller\\Base</title>
<polygon fill="none" stroke="black" points="358.5,-478 273.5,-478 273.5,-442 358.5,-442 358.5,-478"/>
<text text-anchor="start" x="282" y="-463.7" font-family="Courier,monospace" font-size="11.00">«abstract»</text>
<text text-anchor="start" x="302" y="-452.7" font-family="Courier,monospace" font-size="11.00">Base</text>
</g>
<!-- \\ActionController\\Controller\\iAbstractController -->
<g id="node2" class="node"><title>\\ActionController\\Controller\\iAbstractController</title>
<polygon fill="none" stroke="black" points="177.5,-478 32.5,-478 32.5,-442 177.5,-442 177.5,-478"/>
<text text-anchor="middle" x="105" y="-457.2" font-family="Courier,monospace" font-size="11.00">iAbstractController</text>
</g>
<!-- \\ActionController\\Controller\\Base&#45;&gt;\\ActionController\\Controller\\iAbstractController -->
<g id="edge1" class="edge"><title>\\ActionController\\Controller\\Base&#45;&gt;\\ActionController\\Controller\\iAbstractController</title>
<path fill="none" stroke="black" stroke-dasharray="1,5" d="M273.458,-460C248.966,-460 217.117,-460 187.779,-460"/>
<polygon fill="none" stroke="black" points="187.523,-456.5 177.523,-460 187.523,-463.5 187.523,-456.5"/>
</g>
<!-- \\ActionController\\Exception\\UndefinedProperty -->
<g id="node3" class="node"><title>\\ActionController\\Exception\\UndefinedProperty</title>
<polygon fill="none" stroke="black" points="381.5,-398 250.5,-398 250.5,-362 381.5,-362 381.5,-398"/>
<text text-anchor="middle" x="316" y="-377.2" font-family="Courier,monospace" font-size="11.00">UndefinedProperty</text>
</g>
<!-- \\Exception -->
<g id="node9" class="node"><title>\\Exception</title>
<ellipse fill="none" stroke="black" cx="105" cy="-18" rx="48.9926" ry="18"/>
<text text-anchor="middle" x="105" y="-14.3" font-family="Times,serif" font-size="14.00" fill="gray">\Exception</text>
</g>
<!-- \\ActionController\\Exception\\UndefinedProperty&#45;&gt;\\Exception -->
<g id="edge2" class="edge"><title>\\ActionController\\Exception\\UndefinedProperty&#45;&gt;\\Exception</title>
<path fill="none" stroke="black" d="M255.696,-361.86C250.571,-358.539 245.873,-354.62 242,-350 156.095,-247.515 258.904,-162.477 178,-56 171.126,-46.9528 161.469,-39.8405 151.455,-34.34"/>
<polygon fill="none" stroke="black" points="152.738,-31.0685 142.227,-29.7323 149.61,-37.3311 152.738,-31.0685"/>
</g>
<!-- \\ActionController\\Response\\Render -->
<g id="node4" class="node"><title>\\ActionController\\Response\\Render</title>
<polygon fill="none" stroke="black" points="344.5,-318 287.5,-318 287.5,-282 344.5,-282 344.5,-318"/>
<text text-anchor="middle" x="316" y="-297.2" font-family="Courier,monospace" font-size="11.00">Render</text>
</g>
<!-- \\ActionController\\Registry\\Register -->
<g id="node5" class="node"><title>\\ActionController\\Registry\\Register</title>
<polygon fill="none" stroke="black" points="351.5,-238 280.5,-238 280.5,-202 351.5,-202 351.5,-238"/>
<text text-anchor="middle" x="316" y="-217.2" font-family="Courier,monospace" font-size="11.00">Register</text>
</g>
<!-- \\ActionController\\Filter\\BeforeFilter -->
<g id="node6" class="node"><title>\\ActionController\\Filter\\BeforeFilter</title>
<polygon fill="none" stroke="black" points="365,-158 267,-158 267,-122 365,-122 365,-158"/>
<text text-anchor="middle" x="316" y="-137.2" font-family="Courier,monospace" font-size="11.00">BeforeFilter</text>
</g>
<!-- \\ActionController\\Filter\\iFilter -->
<g id="node8" class="node"><title>\\ActionController\\Filter\\iFilter</title>
<polygon fill="none" stroke="black" points="137,-158 73,-158 73,-122 137,-122 137,-158"/>
<text text-anchor="middle" x="105" y="-137.2" font-family="Courier,monospace" font-size="11.00">iFilter</text>
</g>
<!-- \\ActionController\\Filter\\BeforeFilter&#45;&gt;\\ActionController\\Filter\\iFilter -->
<g id="edge3" class="edge"><title>\\ActionController\\Filter\\BeforeFilter&#45;&gt;\\ActionController\\Filter\\iFilter</title>
<path fill="none" stroke="black" stroke-dasharray="1,5" d="M266.789,-140C230.627,-140 181.647,-140 147.281,-140"/>
<polygon fill="none" stroke="black" points="147.115,-136.5 137.115,-140 147.115,-143.5 147.115,-136.5"/>
</g>
<!-- \\ActionController\\Filter\\FilterFactory -->
<g id="node7" class="node"><title>\\ActionController\\Filter\\FilterFactory</title>
<polygon fill="none" stroke="black" points="368,-104 264,-104 264,-68 368,-68 368,-104"/>
<text text-anchor="middle" x="316" y="-83.2" font-family="Courier,monospace" font-size="11.00">FilterFactory</text>
</g>
</g>
</svg>
