<?xml version="1.0" encoding="UTF-8" standalone="no"?>
<!DOCTYPE svg PUBLIC "-//W3C//DTD SVG 1.1//EN"
 "http://www.w3.org/Graphics/SVG/1.1/DTD/svg11.dtd">
<!-- Generated by graphviz version 2.30.1 (20150306.0020)
 -->
<!-- Title: G Pages: 1 -->
<svg width="422pt" height="846pt"
 viewBox="0.00 0.00 422.00 846.00" xmlns="http://www.w3.org/2000/svg" xmlns:xlink="http://www.w3.org/1999/xlink">
<g id="graph0" class="graph" transform="scale(1 1) rotate(0) translate(4 842)">
<title>G</title>
<polygon fill="white" stroke="white" points="-4,5 -4,-842 419,-842 419,5 -4,5"/>
<g id="clust1" class="cluster"><title>cluster_Global</title>
<path fill="none" stroke="gray" d="M20,-44C20,-44 394,-44 394,-44 400,-44 406,-50 406,-56 406,-56 406,-818 406,-818 406,-824 400,-830 394,-830 394,-830 20,-830 20,-830 14,-830 8,-824 8,-818 8,-818 8,-56 8,-56 8,-50 14,-44 20,-44"/>
<text text-anchor="middle" x="207" y="-817.2" font-family="Times,serif" font-size="11.00" fill="gray">Global</text>
</g>
<g id="clust2" class="cluster"><title>cluster_\ActionController</title>
<path fill="none" stroke="gray" d="M28,-52C28,-52 386,-52 386,-52 392,-52 398,-58 398,-64 398,-64 398,-790 398,-790 398,-796 392,-802 386,-802 386,-802 28,-802 28,-802 22,-802 16,-796 16,-790 16,-790 16,-64 16,-64 16,-58 22,-52 28,-52"/>
<text text-anchor="middle" x="207" y="-789.2" font-family="Times,serif" font-size="11.00" fill="gray">ActionController</text>
</g>
<g id="clust3" class="cluster"><title>cluster_\ActionController\Controller</title>
<path fill="none" stroke="gray" d="M36,-702C36,-702 355,-702 355,-702 361,-702 367,-708 367,-714 367,-714 367,-762 367,-762 367,-768 361,-774 355,-774 355,-774 36,-774 36,-774 30,-774 24,-768 24,-762 24,-762 24,-714 24,-714 24,-708 30,-702 36,-702"/>
<text text-anchor="middle" x="195.5" y="-761.2" font-family="Times,serif" font-size="11.00" fill="gray">Controller</text>
</g>
<g id="clust4" class="cluster"><title>cluster_\ActionController\Exception</title>
<path fill="none" stroke="gray" d="M254,-568C254,-568 378,-568 378,-568 384,-568 390,-574 390,-580 390,-580 390,-682 390,-682 390,-688 384,-694 378,-694 378,-694 254,-694 254,-694 248,-694 242,-688 242,-682 242,-682 242,-580 242,-580 242,-574 248,-568 254,-568"/>
<text text-anchor="middle" x="316" y="-681.2" font-family="Times,serif" font-size="11.00" fill="gray">Exception</text>
</g>
<g id="clust5" class="cluster"><title>cluster_\ActionController\Response</title>
<path fill="none" stroke="gray" d="M291,-488C291,-488 341,-488 341,-488 347,-488 353,-494 353,-500 353,-500 353,-548 353,-548 353,-554 347,-560 341,-560 341,-560 291,-560 291,-560 285,-560 279,-554 279,-548 279,-548 279,-500 279,-500 279,-494 285,-488 291,-488"/>
<text text-anchor="middle" x="316" y="-547.2" font-family="Times,serif" font-size="11.00" fill="gray">Response</text>
</g>
<g id="clust6" class="cluster"><title>cluster_\ActionController\Factory</title>
<path fill="none" stroke="gray" d="M274,-408C274,-408 358,-408 358,-408 364,-408 370,-414 370,-420 370,-420 370,-468 370,-468 370,-474 364,-480 358,-480 358,-480 274,-480 274,-480 268,-480 262,-474 262,-468 262,-468 262,-420 262,-420 262,-414 268,-408 274,-408"/>
<text text-anchor="middle" x="316" y="-467.2" font-family="Times,serif" font-size="11.00" fill="gray">Factory</text>
</g>
<g id="clust7" class="cluster"><title>cluster_\ActionController\Registry</title>
<path fill="none" stroke="gray" d="M257,-274C257,-274 375,-274 375,-274 381,-274 387,-280 387,-286 387,-286 387,-388 387,-388 387,-394 381,-400 375,-400 375,-400 257,-400 257,-400 251,-400 245,-394 245,-388 245,-388 245,-286 245,-286 245,-280 251,-274 257,-274"/>
<text text-anchor="middle" x="316" y="-387.2" font-family="Times,serif" font-size="11.00" fill="gray">Registry</text>
</g>
<g id="clust8" class="cluster"><title>cluster_\ActionController\View</title>
<path fill="none" stroke="gray" d="M66,-194C66,-194 348,-194 348,-194 354,-194 360,-200 360,-206 360,-206 360,-254 360,-254 360,-260 354,-266 348,-266 348,-266 66,-266 66,-266 60,-266 54,-260 54,-254 54,-254 54,-206 54,-206 54,-200 60,-194 66,-194"/>
<text text-anchor="middle" x="207" y="-253.2" font-family="Times,serif" font-size="11.00" fill="gray">View</text>
</g>
<g id="clust9" class="cluster"><title>cluster_\ActionController\Filter</title>
<path fill="none" stroke="gray" d="M77,-60C77,-60 364,-60 364,-60 370,-60 376,-66 376,-72 376,-72 376,-174 376,-174 376,-180 370,-186 364,-186 364,-186 77,-186 77,-186 71,-186 65,-180 65,-174 65,-174 65,-72 65,-72 65,-66 71,-60 77,-60"/>
<text text-anchor="middle" x="220.5" y="-173.2" font-family="Times,serif" font-size="11.00" fill="gray">Filter</text>
</g>
<!-- \\ActionController\\Controller\\Base -->
<g id="node1" class="node"><title>\\ActionController\\Controller\\Base</title>
<polygon fill="none" stroke="black" points="358.5,-746 273.5,-746 273.5,-710 358.5,-710 358.5,-746"/>
<text text-anchor="start" x="282" y="-731.7" font-family="Courier,monospace" font-size="11.00">«abstract»</text>
<text text-anchor="start" x="302" y="-720.7" font-family="Courier,monospace" font-size="11.00">Base</text>
</g>
<!-- \\ActionController\\Controller\\iAbstractController -->
<g id="node2" class="node"><title>\\ActionController\\Controller\\iAbstractController</title>
<polygon fill="none" stroke="black" points="177.5,-746 32.5,-746 32.5,-710 177.5,-710 177.5,-746"/>
<text text-anchor="middle" x="105" y="-725.2" font-family="Courier,monospace" font-size="11.00">iAbstractController</text>
</g>
<!-- \\ActionController\\Controller\\Base&#45;&gt;\\ActionController\\Controller\\iAbstractController -->
<g id="edge1" class="edge"><title>\\ActionController\\Controller\\Base&#45;&gt;\\ActionController\\Controller\\iAbstractController</title>
<path fill="none" stroke="black" stroke-dasharray="1,5" d="M273.458,-728C248.966,-728 217.117,-728 187.779,-728"/>
<polygon fill="none" stroke="black" points="187.523,-724.5 177.523,-728 187.523,-731.5 187.523,-724.5"/>
</g>
<!-- \\ActionController\\Exception\\UndefinedProperty -->
<g id="node3" class="node"><title>\\ActionController\\Exception\\UndefinedProperty</title>
<polygon fill="none" stroke="black" points="381.5,-666 250.5,-666 250.5,-630 381.5,-630 381.5,-666"/>
<text text-anchor="middle" x="316" y="-645.2" font-family="Courier,monospace" font-size="11.00">UndefinedProperty</text>
</g>
<!-- \\Exception -->
<g id="node14" class="node"><title>\\Exception</title>
<ellipse fill="none" stroke="black" cx="105" cy="-18" rx="48.9926" ry="18"/>
<text text-anchor="middle" x="105" y="-14.3" font-family="Times,serif" font-size="14.00" fill="gray">\Exception</text>
</g>
<!-- \\ActionController\\Exception\\UndefinedProperty&#45;&gt;\\Exception -->
<g id="edge2" class="edge"><title>\\ActionController\\Exception\\UndefinedProperty&#45;&gt;\\Exception</title>
<path fill="none" stroke="black" d="M251.263,-629.978C247.808,-627.378 244.667,-624.404 242,-621 86.1253,-422.081 320.483,-264.721 178,-56 171.655,-46.705 162.291,-39.5159 152.401,-34.0219"/>
<polygon fill="none" stroke="black" points="153.751,-30.7837 143.241,-29.4412 150.62,-37.0445 153.751,-30.7837"/>
</g>
<!-- \\ActionController\\Exception\\TemplateNotFound -->
<g id="node4" class="node"><title>\\ActionController\\Exception\\TemplateNotFound</title>
<polygon fill="none" stroke="black" points="378.5,-612 253.5,-612 253.5,-576 378.5,-576 378.5,-612"/>
<text text-anchor="middle" x="316" y="-591.2" font-family="Courier,monospace" font-size="11.00">TemplateNotFound</text>
</g>
<!-- \\ActionController\\Exception\\TemplateNotFound&#45;&gt;\\Exception -->
<g id="edge3" class="edge"><title>\\ActionController\\Exception\\TemplateNotFound&#45;&gt;\\Exception</title>
<path fill="none" stroke="black" d="M254.922,-575.973C250.017,-572.633 245.58,-568.679 242,-564 103.721,-383.269 307.476,-243.138 178,-56 171.597,-46.7449 162.211,-39.5709 152.318,-34.0788"/>
<polygon fill="none" stroke="black" points="153.67,-30.8416 143.161,-29.4964 150.537,-37.1015 153.67,-30.8416"/>
</g>
<!-- \\ActionController\\Response\\Render -->
<g id="node5" class="node"><title>\\ActionController\\Response\\Render</title>
<polygon fill="none" stroke="black" points="344.5,-532 287.5,-532 287.5,-496 344.5,-496 344.5,-532"/>
<text text-anchor="middle" x="316" y="-511.2" font-family="Courier,monospace" font-size="11.00">Render</text>
</g>
<!-- \\ActionController\\Factory\\ViewFactory -->
<g id="node6" class="node"><title>\\ActionController\\Factory\\ViewFactory</title>
<polygon fill="none" stroke="black" points="361.5,-452 270.5,-452 270.5,-416 361.5,-416 361.5,-452"/>
<text text-anchor="middle" x="316" y="-431.2" font-family="Courier,monospace" font-size="11.00">ViewFactory</text>
</g>
<!-- \\ActionController\\Registry\\TemplateRegistry -->
<g id="node7" class="node"><title>\\ActionController\\Registry\\TemplateRegistry</title>
<polygon fill="none" stroke="black" points="378.5,-372 253.5,-372 253.5,-336 378.5,-336 378.5,-372"/>
<text text-anchor="middle" x="316" y="-351.2" font-family="Courier,monospace" font-size="11.00">TemplateRegistry</text>
</g>
<!-- \\ActionController\\Registry\\Register -->
<g id="node8" class="node"><title>\\ActionController\\Registry\\Register</title>
<polygon fill="none" stroke="black" points="351.5,-318 280.5,-318 280.5,-282 351.5,-282 351.5,-318"/>
<text text-anchor="middle" x="316" y="-297.2" font-family="Courier,monospace" font-size="11.00">Register</text>
</g>
<!-- \\ActionController\\View\\Base -->
<g id="node9" class="node"><title>\\ActionController\\View\\Base</title>
<polygon fill="none" stroke="black" points="147.5,-238 62.5,-238 62.5,-202 147.5,-202 147.5,-238"/>
<text text-anchor="start" x="71" y="-223.7" font-family="Courier,monospace" font-size="11.00">«abstract»</text>
<text text-anchor="start" x="91" y="-212.7" font-family="Courier,monospace" font-size="11.00">Base</text>
</g>
<!-- \\ActionController\\View\\Concrete -->
<g id="node10" class="node"><title>\\ActionController\\View\\Concrete</title>
<polygon fill="none" stroke="black" points="351.5,-238 280.5,-238 280.5,-202 351.5,-202 351.5,-238"/>
<text text-anchor="middle" x="316" y="-217.2" font-family="Courier,monospace" font-size="11.00">Concrete</text>
</g>
<!-- \\ActionController\\View\\Concrete&#45;&gt;\\ActionController\\View\\Base -->
<g id="edge4" class="edge"><title>\\ActionController\\View\\Concrete&#45;&gt;\\ActionController\\View\\Base</title>
<path fill="none" stroke="black" d="M280.488,-220C247.211,-220 196.41,-220 158.19,-220"/>
<polygon fill="none" stroke="black" points="157.768,-216.5 147.768,-220 157.768,-223.5 157.768,-216.5"/>
</g>
<!-- \\ActionController\\Filter\\BeforeFilter -->
<g id="node11" class="node"><title>\\ActionController\\Filter\\BeforeFilter</title>
<polygon fill="none" stroke="black" points="365,-158 267,-158 267,-122 365,-122 365,-158"/>
<text text-anchor="middle" x="316" y="-137.2" font-family="Courier,monospace" font-size="11.00">BeforeFilter</text>
</g>
<!-- \\ActionController\\Filter\\iFilter -->
<g id="node13" class="node"><title>\\ActionController\\Filter\\iFilter</title>
<polygon fill="none" stroke="black" points="137,-158 73,-158 73,-122 137,-122 137,-158"/>
<text text-anchor="middle" x="105" y="-137.2" font-family="Courier,monospace" font-size="11.00">iFilter</text>
</g>
<!-- \\ActionController\\Filter\\BeforeFilter&#45;&gt;\\ActionController\\Filter\\iFilter -->
<g id="edge5" class="edge"><title>\\ActionController\\Filter\\BeforeFilter&#45;&gt;\\ActionController\\Filter\\iFilter</title>
<path fill="none" stroke="black" stroke-dasharray="1,5" d="M266.789,-140C230.627,-140 181.647,-140 147.281,-140"/>
<polygon fill="none" stroke="black" points="147.115,-136.5 137.115,-140 147.115,-143.5 147.115,-136.5"/>
</g>
<!-- \\ActionController\\Filter\\FilterFactory -->
<g id="node12" class="node"><title>\\ActionController\\Filter\\FilterFactory</title>
<polygon fill="none" stroke="black" points="368,-104 264,-104 264,-68 368,-68 368,-104"/>
<text text-anchor="middle" x="316" y="-83.2" font-family="Courier,monospace" font-size="11.00">FilterFactory</text>
</g>
</g>
</svg>
